# xmcd CD database file
# Copyright (C) 1993-1996 Ti Kan
#
# Track frame offsets:
#	182
#	15580
#	27995
#	44077
#	57945
#	68567
#	80935
#	95735
#	119902
#	133462
#	137450
#	151517
#	164415
#	180002
#	197102
#	211252
#	234922
#	248422
#	254755
#	283952
#
# Disc length: 4030 seconds
#
# Revision: 1
# Processed by: cddbd v1.4b41PL1 Copyright (c) Steve Scherf et al.
# Submitted via: CDValet v3.01 - Copyright (c) 1997 Greg Leichner
#
DISCID=230fbc14
DTITLE=Hoyt Axton - American Originals
DYEAR=1900
DGENRE=
TTITLE0=Never Been To Spain
TTITLE1=Ease Your Pain
TTITLE2=Indian Song
TTITLE3=Lightnin' Bar Blues
TTITLE4=California Women
TTITLE5=Joy To The World
TTITLE6=Alice In Wonderland
TTITLE7=The Pusher
TTITLE8=Have A Nice Day
TTITLE9=My Carolina Sunshine Girl
TTITLE10=Jambalaya (On The Bayou)
TTITLE11=Thomas Hall
TTITLE12=The Devil
TTITLE13=Epistle
TTITLE14=Officer Ray
TTITLE15=Better Lovin' Man
TTITLE16=Heaven
TTITLE17=Country Anthem
TTITLE18=Farther Along - Old Time Religion
TTITLE19=It's Been Fun
EXTD=
EXTT0=
EXTT1=
EXTT2=
EXTT3=
EXTT4=
EXTT5=
EXTT6=
EXTT7=
EXTT8=
EXTT9=
EXTT10=
EXTT11=
EXTT12=
EXTT13=
EXTT14=
EXTT15=
EXTT16=
EXTT17=
EXTT18=
EXTT19=
PLAYORDER=
